<svg width="1366" height="167" viewBox="0 0 1366 166" fill="none" xmlns="http://www.w3.org/2000/svg">
<path fill-rule="evenodd" clip-rule="evenodd" d="M0 136.088C37.9378 128.552 172.945 75.3104 330.891 73.5362C454.595 72.1503 587.347 105.321 703.583 93.2382C849.18 78.108 958.21 23.6284 1064.79 7.00641C1232.66 -19.1763 1366 33.9976 1366 68.2073V166.768H0V136.088V136.088Z" fill="#A3A3A3"/>
<path fill-rule="evenodd" clip-rule="evenodd" d="M0 136.088C37.9346 129.925 169.913 102.905 327.859 101.455C451.567 100.322 592.378 111.288 708.613 101.41C854.211 89.0386 953.179 51.027 1059.76 37.4336C1227.63 16.0248 1366 58.1975 1366 86.1736V166.768H0V136.088Z" fill="#20232A"/>
</svg>
