<svg width="128" height="50" viewBox="0 0 128 50" fill="none" xmlns="http://www.w3.org/2000/svg">
<path fill-rule="evenodd" clip-rule="evenodd" d="M15.4356 41.1912C15.8639 40.0194 21.5048 40.2295 21.3755 41.2559C21.2866 42.0317 17.4236 42.2822 15.9528 41.668C15.5487 41.4983 15.5891 41.4983 15.4356 41.1912ZM18.6035 28.075C19.5006 28.2043 20.0663 28.5114 20.3814 29.1256C20.8421 30.0388 21.1411 31.9541 22.4745 32.6895C23.6706 33.3522 28.2205 33.6512 29.6105 32.4228C30.8065 31.3561 30.3297 28.8023 30.8146 27.9376C30.8712 28.9963 30.8227 30.1923 30.7661 31.2429C30.6934 32.4956 30.5802 32.9239 30.1843 33.9825C29.562 35.6635 28.7538 37.2232 27.8002 38.193C26.5314 39.4779 24.8101 40.0598 23.0241 39.3406C22.0381 38.9446 20.8259 37.4657 18.2075 37.603C15.2174 37.8212 15.0234 38.9122 13.5849 39.4214C11.6131 40.1245 9.80281 39.0254 8.92193 38.0637C8.01681 37.0616 7.1925 35.5746 6.6268 33.926C6.31162 32.9804 6.22272 28.9801 6.28738 27.8083C6.90965 31.7925 6.19848 33.5623 12.1707 33.2067C13.0031 33.1582 13.8435 33.0613 14.5305 32.7218C16.8014 31.5823 15.6295 28.3174 18.6035 28.075V28.075ZM10.5544 26.2486C11.6777 26.1597 13.2455 26.1193 14.3527 26.2567C15.5487 26.4102 16.6074 26.7335 16.4134 28.0992C16.2841 29.0124 15.7669 30.2247 15.3952 30.9843C14.8861 32.0268 14.4739 32.3905 13.1081 32.5925C12.0899 32.7461 10.2958 32.8107 9.27752 32.6491C8.15419 32.4632 7.58849 31.7682 7.36221 30.6691C6.73994 27.5335 7.62082 26.4829 10.5544 26.2486V26.2486ZM23.0564 26.2243C24.6969 26.087 28.6892 25.9415 29.5539 27.5255C30.0065 28.3498 29.9014 30.0469 29.6347 30.9924C29.3357 32.0349 28.6649 32.5764 27.4366 32.6976C26.4102 32.7946 24.6161 32.7461 23.6302 32.536C22.3614 32.2774 22.022 31.744 21.5533 30.7096C21.2704 30.0792 20.6158 28.4791 20.632 27.7275C20.6481 26.5799 21.9412 26.3132 23.0564 26.2243V26.2243ZM32.1319 28.2366C32.1238 26.0142 33.9906 24.3333 34.2411 26.0465C34.322 26.6123 34.2412 27.3153 34.1765 27.881C34.0068 29.4246 33.7482 33.8775 31.6793 32.7946L31.8894 30.556C32.2531 30.7015 32.4794 30.8065 32.6814 30.3701C32.8188 30.0792 33.1906 28.5518 32.932 28.1962C32.7299 27.9295 32.3824 28.1639 32.1319 28.2366V28.2366ZM5.04283 32.8835C3.97608 33.3441 3.41846 31.8975 3.20834 31.0732C2.9659 30.0954 2.86084 28.8427 2.7477 27.8002C2.35979 24.2605 3.73364 25.0444 4.4448 26.6203C4.68725 27.1456 4.67917 27.5901 4.71149 28.1962C4.59027 28.1639 4.39631 28.0831 4.30742 28.075C3.59625 28.0346 4.00032 29.4165 4.08922 29.8125C4.25085 30.5237 4.23469 30.7338 4.92161 30.653L5.06708 32.8188C5.06708 32.8107 5.05899 32.8673 5.04283 32.8835V32.8835ZM18.2075 26.095C17.6095 26.1516 16.1548 25.7395 15.4841 25.6021C11.9444 24.8909 9.73008 25.3839 6.3197 25.2869C6.34395 24.01 6.28738 19.7915 6.41668 18.951C6.71569 17.0842 7.74204 15.4194 9.68159 16.7125C9.89979 16.866 9.9806 16.8983 10.1503 17.0923L10.9585 17.8843C12.1626 18.7894 14.5062 19.6218 16.0013 20.042C16.6397 20.2198 17.8762 20.4784 18.4096 20.7047L22.3372 21.4563C20.8583 19.9693 19.8077 19.0318 19.0561 16.8175C20.2441 18.2318 23.1211 20.0178 24.8667 20.5592L23.7433 19.646C22.8786 18.9268 21.8442 17.3913 21.4159 16.2599C21.8361 16.1791 21.9169 16.4539 22.1836 16.6882C23.5009 17.8358 25.7152 19.5006 27.3638 19.9289C26.8224 19.4925 26.8789 19.6056 26.3132 19.0642C25.5213 18.2964 24.309 16.4134 24.2282 15.4113C24.5434 15.2093 24.5757 15.1608 24.9232 15.3144C26.5961 16.0579 28.0427 17.0761 29.1175 18.555C30.4833 20.438 30.7661 22.4988 30.7823 25.2707C28.5518 25.5536 25.691 24.7131 21.0603 25.7152C20.5107 25.8364 18.6197 26.386 18.2075 26.095V26.095ZM18.8621 2.46485C17.0276 2.01228 16.8175 1.55164 13.8193 1.17989C11.8717 0.937449 9.82706 1.01018 7.96024 1.4385C4.93777 2.13351 2.85276 3.46695 0.751576 5.39842C0.468725 5.64894 0.210118 5.90755 0 6.20656C1.90722 6.61872 3.91143 7.61274 5.13173 9.03507C5.24487 9.17246 5.34185 9.14821 5.59237 9.4149C5.72167 9.56037 5.76208 9.60078 5.8429 9.7624C5.65702 9.95636 5.64086 10.0695 5.46307 10.2635C5.18022 10.5544 4.60643 10.7483 4.17812 11.7343C3.49927 13.3021 3.69323 15.6134 3.74172 17.3994C3.77404 18.7894 3.82253 19.9774 3.968 21.3512C4.0973 22.5149 4.39631 24.0908 4.42056 25.1818C3.40229 24.3979 2.13351 23.3877 2.18199 25.6586C2.23856 27.8891 2.26281 31.849 3.11944 33.7643C3.55584 34.726 4.14579 35.1705 5.4065 34.7503C5.51156 35.6554 5.8429 36.7545 6.08534 37.603C6.35203 38.5405 6.6268 39.389 6.93389 40.278C7.98448 43.3328 9.61694 47.2927 12.4859 48.8039C14.3042 49.7656 16.2276 50.0081 18.5631 50C26.0142 50 27.7517 46.1532 29.9176 40.2295C30.6207 38.3061 30.9278 36.6817 31.445 34.6371C31.9703 35.1301 33.2956 35.2675 33.9583 33.4007C34.5967 31.5823 34.823 27.2668 34.7503 25.2788C34.6614 23.0807 32.7865 25.0606 32.3582 25.3354C32.536 22.1594 33.0047 19.6541 33.0047 16.3246C33.0047 13.1405 32.2046 11.7828 30.2166 9.64926C29.667 9.05124 29.0609 8.62292 28.7619 8.34815C28.5599 8.14611 28.6407 8.29966 28.5841 8.05722C28.4791 7.6289 28.5356 7.27332 28.3659 6.7561C28.0346 5.74592 27.1537 4.50137 26.4506 3.85486C25.5859 3.06287 23.9858 1.8749 22.3695 1.57588C22.5877 1.86682 22.814 2.0042 23.0322 2.2224C23.2665 2.45676 23.4282 2.66688 23.6544 2.90124C24.01 3.27299 24.5272 3.91951 24.5757 4.65492C24.4383 4.57411 23.4039 3.47503 22.3372 2.76386C19.6864 0.985938 16.1144 0.0404073 12.7768 0L16.0659 1.0021C17.068 1.35769 18.2075 1.89106 18.8621 2.46485V2.46485Z" fill="#000004"/>
<path fill-rule="evenodd" clip-rule="evenodd" d="M18.4096 20.7047C18.5793 20.8987 18.5308 20.8744 18.555 21.0037V21.9897C18.555 22.8786 18.4985 25.5617 18.5793 26.095H18.2075C18.6197 26.386 20.5107 25.8364 21.0603 25.7152C25.691 24.7131 28.5518 25.5536 30.7823 25.2707C30.7661 22.4988 30.4833 20.438 29.1175 18.555C28.0427 17.0761 26.5961 16.0579 24.9232 15.3144C24.5757 15.1608 24.5434 15.2093 24.2282 15.4113C24.309 16.4134 25.5213 18.2964 26.3132 19.0642C26.8789 19.6056 26.8224 19.4925 27.3638 19.9289C25.7152 19.5006 23.5009 17.8358 22.1836 16.6882C21.9169 16.4539 21.8361 16.1791 21.4159 16.2599C21.8442 17.3913 22.8786 18.9268 23.7433 19.646L24.8667 20.5592C23.1211 20.0178 20.2441 18.2318 19.0561 16.8175C19.8077 19.0318 20.8582 19.9693 22.3372 21.4563L18.4096 20.7047V20.7047Z" fill="#F48D26"/>
<path fill-rule="evenodd" clip-rule="evenodd" d="M18.2075 26.095H18.5793C18.4985 25.5617 18.555 22.8786 18.555 21.9896V21.0037C18.5308 20.8744 18.5793 20.8987 18.4096 20.7047C17.8762 20.4784 16.6397 20.2198 16.0013 20.042C14.5062 19.6218 12.1626 18.7894 10.9585 17.8843L10.1503 17.0923C9.9806 16.8983 9.89979 16.866 9.68159 16.7125C7.74204 15.4194 6.71569 17.0842 6.41668 18.951C6.28738 19.7915 6.34395 24.01 6.3197 25.2869C9.73008 25.3839 11.9444 24.8909 15.4841 25.6021C16.1548 25.7394 17.6095 26.1516 18.2075 26.095V26.095Z" fill="#FBAB4A"/>
<path fill-rule="evenodd" clip-rule="evenodd" d="M18.2075 37.603L18.5793 37.4414C18.4985 36.7383 18.4985 28.5922 18.6035 28.075C15.6295 28.3174 16.8014 31.5823 14.5305 32.7218C13.8435 33.0613 13.0031 33.1582 12.1707 33.2067C6.19848 33.5623 6.90965 31.7925 6.28738 27.8083C6.22273 28.9801 6.31162 32.9804 6.6268 33.926C7.1925 35.5746 8.01681 37.0616 8.92193 38.0637C9.80281 39.0254 11.6131 40.1244 13.5849 39.4214C15.0234 38.9122 15.2174 37.8212 18.2075 37.603Z" fill="#FBAB4A"/>
<path fill-rule="evenodd" clip-rule="evenodd" d="M18.6035 28.075C18.4985 28.5922 18.4985 36.7383 18.5793 37.4414L18.2075 37.603C20.8259 37.4656 22.0381 38.9446 23.0241 39.3405C24.8101 40.0598 26.5314 39.4779 27.8002 38.193C28.7538 37.2232 29.562 35.6635 30.1843 33.9825C30.5802 32.9239 30.6934 32.4956 30.7661 31.2429C30.8227 30.1923 30.8712 28.9963 30.8146 27.9376C30.3297 28.8023 30.8065 31.3561 29.6105 32.4228C28.2205 33.6512 23.6706 33.3522 22.4745 32.6895C21.1411 31.9541 20.8421 30.0388 20.3814 29.1256C20.0663 28.5114 19.5006 28.2043 18.6035 28.075Z" fill="#F48D26"/>
<path fill-rule="evenodd" clip-rule="evenodd" d="M10.5544 26.2486C7.62082 26.4829 6.73994 27.5335 7.36221 30.6691C7.58849 31.7682 8.15419 32.4632 9.27752 32.6491C10.2958 32.8107 12.0899 32.7461 13.1081 32.5925C14.4739 32.3905 14.8861 32.0268 15.3952 30.9843C15.7669 30.2247 16.2841 29.0124 16.4134 28.0992C16.6074 26.7335 15.5487 26.4102 14.3527 26.2567C13.2455 26.1193 11.6777 26.1597 10.5544 26.2486V26.2486Z" fill="#FBAB4A"/>
<path fill-rule="evenodd" clip-rule="evenodd" d="M23.0564 26.2243C21.9412 26.3132 20.6481 26.5799 20.632 27.7275C20.6158 28.4791 21.2704 30.0792 21.5533 30.7096C22.022 31.744 22.3614 32.2774 23.6302 32.536C24.6161 32.7461 26.4102 32.7946 27.4366 32.6976C28.6649 32.5764 29.3357 32.0349 29.6347 30.9924C29.9014 30.0469 30.0065 28.3498 29.5539 27.5255C28.6892 25.9415 24.6969 26.087 23.0564 26.2243V26.2243Z" fill="#F48D26"/>
<path fill-rule="evenodd" clip-rule="evenodd" d="M32.1319 28.2366C32.3824 28.1639 32.7299 27.9295 32.932 28.1962C33.1906 28.5518 32.8188 30.0792 32.6814 30.3701C32.4794 30.8065 32.2531 30.7015 31.8894 30.556L31.6793 32.7946C33.7482 33.8775 34.0068 29.4246 34.1765 27.881C34.2412 27.3153 34.322 26.6122 34.2411 26.0465C33.9906 24.3333 32.1238 26.0142 32.1319 28.2366V28.2366Z" fill="#F48D26"/>
<path fill-rule="evenodd" clip-rule="evenodd" d="M5.04283 32.8835C5.05899 32.8673 5.06708 32.8107 5.06708 32.8188L4.92161 30.653C4.23469 30.7338 4.25085 30.5237 4.08922 29.8125C4.00032 29.4165 3.59625 28.0346 4.30742 28.075C4.39631 28.0831 4.59027 28.1639 4.71149 28.1962C4.67917 27.5901 4.68725 27.1456 4.4448 26.6203C3.73364 25.0445 2.35979 24.2606 2.7477 27.8002C2.86084 28.8427 2.9659 30.0954 3.20834 31.0732C3.41846 31.8975 3.97608 33.3441 5.04283 32.8835V32.8835Z" fill="#FBAB4A"/>
<path fill-rule="evenodd" clip-rule="evenodd" d="M15.4356 41.1912C15.5891 41.4983 15.5487 41.4983 15.9528 41.668C17.4236 42.2822 21.2866 42.0317 21.3755 41.2559C21.5048 40.2295 15.8639 40.0194 15.4356 41.1912V41.1912Z" fill="#FB9734"/>
<path d="M54.5418 36.9969H51.1233L50.1293 33.8937H45.1754L44.1894 36.9969H40.7871L45.8623 23.0564H49.5878L54.5418 36.9969V36.9969ZM49.4101 31.4854L47.915 26.7981C47.8018 26.4425 47.7291 26.0304 47.6806 25.5455H47.5998C47.5675 25.9496 47.4867 26.3537 47.3574 26.7577L45.8461 31.4854H49.4101ZM66.7529 23.0564L61.9525 36.9969H58.3966L53.6447 23.0564H57.0309L59.9402 32.7542C60.0937 33.2795 60.1907 33.7401 60.223 34.1442H60.2796C60.32 33.7159 60.4251 33.231 60.5786 32.7138L63.4637 23.0564H66.7529V23.0564ZM71.5613 36.9969H68.4257V23.0564H71.5613V36.9969ZM87.2717 36.9969H84.1038L78.3578 28.2366C78.0184 27.7275 77.7841 27.3396 77.6548 27.081H77.6224C77.6709 27.574 77.6952 28.3255 77.6952 29.3357V36.9969H74.7293V23.0564H78.1154L83.6431 31.542C83.8936 31.9218 84.128 32.3016 84.3462 32.6734H84.3866C84.33 32.3582 84.3058 31.7117 84.3058 30.7661V23.0564H87.2717V36.9969ZM102.715 36.9969H99.2969L98.3029 33.8937H93.349L92.363 36.9969H88.9607L94.0359 23.0564H97.7614L102.715 36.9969V36.9969ZM97.5836 31.4854L96.0886 26.7981C95.9754 26.4425 95.8946 26.0304 95.8542 25.5455H95.7734C95.7411 25.9496 95.6603 26.3537 95.531 26.7577L94.0197 31.4854H97.5836V31.4854ZM103.814 36.4636V33.3441C104.38 33.8209 104.994 34.1765 105.649 34.4109C106.312 34.6452 106.982 34.7665 107.653 34.7665C108.049 34.7665 108.397 34.7341 108.688 34.6614C108.987 34.5887 109.229 34.4917 109.431 34.3624C109.625 34.2331 109.77 34.0876 109.867 33.9179C109.964 33.7482 110.013 33.5623 110.013 33.3603C110.013 33.0855 109.94 32.8431 109.787 32.6329C109.625 32.4147 109.415 32.2127 109.148 32.0349C108.873 31.8571 108.558 31.6793 108.187 31.5096C107.815 31.3399 107.419 31.1702 106.99 30.9924C105.908 30.5479 105.091 29.9903 104.558 29.3357C104.025 28.6811 103.758 27.8891 103.758 26.9678C103.758 26.2405 103.903 25.6102 104.194 25.0929C104.485 24.5676 104.881 24.1393 105.382 23.7999C105.891 23.4686 106.465 23.218 107.128 23.0564C107.791 22.9029 108.486 22.8221 109.229 22.8221C109.956 22.8221 110.595 22.8625 111.16 22.9514C111.718 23.0403 112.235 23.1776 112.712 23.3554V26.2648C112.47 26.1031 112.219 25.9577 111.944 25.8364C111.67 25.7152 111.387 25.6102 111.096 25.5293C110.805 25.4485 110.514 25.392 110.223 25.3516C109.932 25.3111 109.665 25.295 109.407 25.295C109.043 25.295 108.728 25.3273 108.429 25.392C108.138 25.4647 107.896 25.5536 107.694 25.6829C107.492 25.8041 107.338 25.9496 107.225 26.1193C107.112 26.2971 107.063 26.483 107.063 26.7012C107.063 26.9355 107.12 27.1456 107.241 27.3234C107.37 27.5093 107.54 27.6871 107.774 27.8568C108.001 28.0184 108.275 28.1801 108.599 28.3417C108.922 28.4952 109.286 28.6569 109.698 28.8266C110.255 29.0609 110.748 29.3115 111.193 29.5701C111.637 29.8368 112.025 30.1358 112.34 30.459C112.656 30.7904 112.898 31.1702 113.068 31.5985C113.237 32.0188 113.318 32.5117 113.318 33.0774C113.318 33.8532 113.173 34.5078 112.882 35.0331C112.583 35.5665 112.187 35.9948 111.678 36.3181C111.169 36.6414 110.587 36.8838 109.916 37.0212C109.245 37.1666 108.534 37.2394 107.791 37.2394C107.023 37.2394 106.295 37.1747 105.609 37.0454C104.922 36.9161 104.315 36.7222 103.814 36.4636V36.4636ZM127.679 36.9969H124.527V31.3157H118.757V36.9969H115.613V23.0564H118.757V28.6165H124.527V23.0564H127.679V36.9969Z" fill="#EFEFF0"/>
</svg>
